<?xml version="1.0" standalone="no"?>
<!DOCTYPE svg PUBLIC "-//W3C//DTD SVG 20010904//EN"
 "http://www.w3.org/TR/2001/REC-SVG-20010904/DTD/svg10.dtd">
<svg version="1.0" xmlns="http://www.w3.org/2000/svg"
 width="613.000000pt" height="212.000000pt" viewBox="0 0 613.000000 212.000000"
 preserveAspectRatio="xMidYMid meet">

<g transform="translate(0.000000,212.000000) scale(0.100000,-0.100000)"
fill="#000000" stroke="none">
<path d="M0 1060 l0 -1060 3065 0 3065 0 0 1060 0 1060 -3065 0 -3065 0 0
-1060z m330 920 c10 -6 11 -10 3 -10 -16 0 -17 -25 -1 -50 11 -16 9 -23 -10
-40 -20 -19 -24 -20 -38 -6 -8 9 -11 16 -5 16 15 0 14 26 -1 51 -11 17 -10 22
6 35 23 17 26 17 46 4z m80 0 c10 -6 11 -10 3 -10 -7 0 -13 -9 -13 -20 0 -11
5 -20 10 -20 18 0 11 -35 -10 -53 -19 -16 -22 -16 -36 -2 -9 8 -11 15 -6 15
16 0 21 38 6 44 -19 7 -17 33 4 45 21 13 24 13 42 1z m85 0 c3 -5 1 -10 -4
-10 -17 0 -13 -32 7 -46 16 -12 15 -15 -11 -39 -25 -24 -29 -25 -43 -11 -14
15 -14 16 0 16 21 0 20 29 -1 46 -17 13 -17 15 6 34 26 22 37 25 46 10z m80 0
c3 -5 1 -10 -4 -10 -17 0 -13 -32 7 -46 16 -12 15 -15 -11 -39 -25 -24 -29
-25 -43 -11 -14 15 -14 16 0 16 21 0 20 29 -1 46 -17 13 -17 15 6 34 26 22 37
25 46 10z m78 4 c3 -3 0 -15 -6 -26 -10 -16 -9 -21 6 -29 18 -10 24 -39 8 -39
-5 0 -17 -7 -25 -16 -15 -14 -17 -14 -32 0 -14 15 -14 16 0 16 21 0 20 27 0
48 -15 15 -15 17 6 34 24 19 33 22 43 12z m87 -4 c10 -6 11 -10 3 -10 -16 0
-17 -25 -1 -50 11 -16 9 -23 -10 -40 -20 -19 -24 -20 -38 -6 -8 9 -11 16 -5
16 15 0 14 26 -1 51 -11 17 -10 22 6 35 23 17 26 17 46 4z m80 0 c10 -6 11
-10 3 -10 -16 0 -17 -25 -1 -50 11 -16 9 -23 -10 -40 -20 -19 -24 -20 -38 -6
-8 9 -11 16 -5 16 15 0 14 26 -1 51 -11 17 -10 22 6 35 23 17 26 17 46 4z
m1960 0 c10 -6 11 -10 3 -10 -16 0 -17 -25 -1 -50 11 -16 9 -23 -10 -40 -20
-19 -24 -20 -38 -6 -8 9 -11 16 -5 16 15 0 14 26 -1 51 -11 17 -10 22 6 35 23
17 26 17 46 4z m80 0 c10 -6 11 -10 3 -10 -7 0 -13 -9 -13 -20 0 -11 5 -20 10
-20 18 0 11 -35 -10 -53 -19 -16 -22 -16 -36 -2 -9 8 -11 15 -6 15 16 0 21 38
6 44 -19 7 -17 33 4 45 21 13 24 13 42 1z m1800 0 c10 -6 11 -10 3 -10 -16 0
-17 -25 -1 -50 11 -16 9 -23 -10 -40 -20 -19 -24 -20 -38 -6 -8 9 -11 16 -5
16 15 0 14 26 -1 51 -11 17 -10 22 6 35 23 17 26 17 46 4z m80 0 c10 -6 11
-10 3 -10 -7 0 -13 -9 -13 -20 0 -11 5 -20 10 -20 18 0 11 -35 -10 -53 -19
-16 -22 -16 -36 -2 -9 8 -11 15 -6 15 16 0 21 38 6 44 -19 7 -17 33 4 45 21
13 24 13 42 1z m80 0 c10 -6 11 -10 3 -10 -7 0 -13 -9 -13 -20 0 -11 5 -20 10
-20 18 0 11 -35 -10 -53 -19 -16 -22 -16 -36 -2 -9 8 -11 15 -6 15 16 0 21 38
6 44 -19 7 -17 33 4 45 21 13 24 13 42 1z m85 0 c3 -5 1 -10 -4 -10 -17 0 -13
-32 7 -46 16 -12 15 -15 -11 -39 -25 -24 -29 -25 -43 -11 -14 15 -14 16 0 16
21 0 20 29 -1 46 -17 13 -17 15 6 34 26 22 37 25 46 10z m78 4 c3 -3 0 -15 -6
-26 -10 -16 -9 -21 6 -29 9 -6 17 -17 17 -24 0 -8 7 -15 15 -15 8 0 15 9 15
20 0 11 -4 20 -9 20 -21 0 -19 31 4 46 31 20 49 11 32 -17 -10 -17 -9 -22 6
-30 18 -10 24 -39 8 -39 -5 0 -17 -7 -25 -16 -15 -14 -17 -14 -32 0 -8 9 -19
16 -24 16 -5 0 -16 -7 -24 -16 -15 -14 -17 -14 -32 0 -14 15 -14 16 0 16 21 0
20 27 0 48 -15 15 -15 17 6 34 24 19 33 22 43 12z m490 0 c3 -3 0 -15 -6 -26
-10 -16 -9 -21 6 -29 9 -6 17 -17 17 -24 0 -8 7 -15 15 -15 8 0 15 9 15 20 0
11 -4 20 -9 20 -21 0 -19 31 4 46 31 20 49 11 32 -17 -10 -17 -9 -22 6 -30 18
-10 24 -39 8 -39 -5 0 -17 -7 -25 -16 -15 -14 -17 -14 -32 0 -8 9 -19 16 -24
16 -5 0 -16 -7 -24 -16 -15 -14 -17 -14 -32 0 -14 15 -14 16 0 16 21 0 20 27
0 48 -15 15 -15 17 6 34 24 19 33 22 43 12z m167 -4 c10 -6 11 -10 3 -10 -16
0 -17 -25 -1 -50 11 -16 9 -23 -10 -40 -20 -19 -24 -20 -38 -6 -8 9 -11 16 -5
16 15 0 14 26 -1 51 -11 17 -10 22 6 35 23 17 26 17 46 4z m80 0 c10 -6 11
-10 3 -10 -7 0 -13 -9 -13 -20 0 -11 5 -20 10 -20 18 0 11 -35 -10 -53 -19
-16 -22 -16 -36 -2 -9 8 -11 15 -6 15 16 0 21 38 6 44 -19 7 -17 33 4 45 21
13 24 13 42 1z m80 0 c10 -6 11 -10 3 -10 -7 0 -13 -9 -13 -20 0 -11 5 -20 10
-20 18 0 11 -35 -10 -53 -19 -16 -22 -16 -36 -2 -9 8 -11 15 -6 15 16 0 21 38
6 44 -19 7 -17 33 4 45 21 13 24 13 42 1z m85 0 c3 -5 1 -10 -4 -10 -17 0 -13
-32 7 -46 16 -12 15 -15 -11 -39 -25 -24 -29 -25 -43 -11 -14 15 -14 16 0 16
21 0 20 29 -1 46 -17 13 -17 15 6 34 26 22 37 25 46 10z m-5650 -57 c-28 -62
-32 -69 -40 -61 -8 8 43 118 55 118 5 0 -2 -26 -15 -57z m2450 0 c-28 -62 -32
-69 -40 -61 -8 8 43 118 55 118 5 0 -2 -26 -15 -57z m1895 50 c0 -17 -44 -113
-52 -113 -11 0 -11 1 13 64 12 31 26 56 30 56 5 0 9 -3 9 -7z m816 -10 c-26
-70 -43 -103 -53 -103 -7 0 -2 22 14 60 15 33 31 60 36 60 5 0 6 -8 3 -17z
m-5246 -208 c0 -43 -4 -75 -10 -75 -6 0 -10 32 -10 75 0 43 4 75 10 75 6 0 10
-32 10 -75z m2450 0 c0 -43 -4 -75 -10 -75 -6 0 -10 32 -10 75 0 43 4 75 10
75 6 0 10 -32 10 -75z m-2270 55 c10 -6 11 -10 3 -10 -16 0 -17 -25 -1 -50 11
-16 9 -23 -10 -40 -20 -19 -24 -20 -38 -6 -8 9 -11 16 -5 16 15 0 14 26 -1 51
-11 17 -10 22 6 35 23 17 26 17 46 4z m80 0 c10 -6 11 -10 3 -10 -7 0 -13 -9
-13 -20 0 -11 5 -20 10 -20 18 0 11 -35 -10 -53 -19 -16 -22 -16 -36 -2 -9 8
-11 15 -6 15 16 0 21 38 6 44 -19 7 -17 33 4 45 21 13 24 13 42 1z m410 0 c10
-6 11 -10 3 -10 -16 0 -17 -25 -1 -50 11 -16 9 -23 -10 -40 -20 -19 -24 -20
-38 -6 -8 9 -11 16 -5 16 15 0 14 26 -1 51 -11 17 -10 22 6 35 23 17 26 17 46
4z m80 0 c10 -6 11 -10 3 -10 -7 0 -13 -9 -13 -20 0 -11 5 -20 10 -20 18 0 11
-35 -10 -53 -19 -16 -22 -16 -36 -2 -9 8 -11 15 -6 15 16 0 21 38 6 44 -19 7
-17 33 4 45 21 13 24 13 42 1z m3673 4 c3 -3 0 -15 -6 -26 -10 -16 -9 -21 6
-29 18 -10 24 -39 8 -39 -5 0 -17 -7 -25 -16 -15 -14 -17 -14 -32 0 -14 15
-14 16 0 16 21 0 20 27 0 48 -15 15 -15 17 6 34 24 19 33 22 43 12z m87 -4
c10 -6 11 -10 3 -10 -16 0 -17 -25 -1 -50 11 -16 9 -23 -10 -40 -20 -19 -24
-20 -38 -6 -8 9 -11 16 -5 16 15 0 14 26 -1 51 -11 17 -10 22 6 35 23 17 26
17 46 4z m403 4 c3 -3 0 -15 -6 -26 -10 -16 -9 -21 6 -29 18 -10 24 -39 8 -39
-5 0 -17 -7 -25 -16 -15 -14 -17 -14 -32 0 -14 15 -14 16 0 16 21 0 20 27 0
48 -15 15 -15 17 6 34 24 19 33 22 43 12z m87 -4 c10 -6 11 -10 3 -10 -16 0
-17 -25 -1 -50 11 -16 9 -23 -10 -40 -20 -19 -24 -20 -38 -6 -8 9 -11 16 -5
16 15 0 14 26 -1 51 -11 17 -10 22 6 35 23 17 26 17 46 4z m245 0 c3 -5 1 -10
-4 -10 -17 0 -13 -32 7 -46 16 -12 15 -15 -11 -39 -25 -24 -29 -25 -43 -11
-14 15 -14 16 0 16 21 0 20 29 -1 46 -17 13 -17 15 6 34 26 22 37 25 46 10z
m78 4 c3 -3 0 -15 -6 -26 -10 -16 -9 -21 6 -29 18 -10 24 -39 8 -39 -5 0 -17
-7 -25 -16 -15 -14 -17 -14 -32 0 -14 15 -14 16 0 16 21 0 20 27 0 48 -15 15
-15 17 6 34 24 19 33 22 43 12z m412 -4 c3 -5 1 -10 -4 -10 -17 0 -13 -32 7
-46 16 -12 15 -15 -11 -39 -25 -24 -29 -25 -43 -11 -14 15 -14 16 0 16 21 0
20 29 -1 46 -17 13 -17 15 6 34 26 22 37 25 46 10z m78 4 c3 -3 0 -15 -6 -26
-10 -16 -9 -21 6 -29 18 -10 24 -39 8 -39 -5 0 -17 -7 -25 -16 -15 -14 -17
-14 -32 0 -14 15 -14 16 0 16 21 0 20 27 0 48 -15 15 -15 17 6 34 24 19 33 22
43 12z m-3109 -41 c-9 -21 -20 -48 -25 -60 -11 -29 -37 -35 -129 -30 l-75 3
88 2 c81 2 88 4 96 25 28 70 42 97 51 97 6 0 3 -17 -6 -37z m1646 30 c0 -17
-44 -113 -52 -113 -11 0 -11 1 13 64 12 31 26 56 30 56 5 0 9 -3 9 -7z m804
-30 c-9 -21 -20 -48 -25 -60 -5 -13 -13 -23 -19 -23 -6 0 -6 8 -1 23 28 70 42
97 51 97 6 0 3 -17 -6 -37z m-4746 -90 c-27 -2 -69 -2 -95 0 -27 2 -5 3 47 3
52 0 74 -1 48 -3z m4245 0 c-23 -2 -64 -2 -90 0 -26 2 -7 3 42 3 50 0 71 -1
48 -3z m820 0 c-23 -2 -64 -2 -90 0 -26 2 -7 3 42 3 50 0 71 -1 48 -3z m-5473
-108 c0 -43 -4 -75 -10 -75 -6 0 -10 32 -10 75 0 43 4 75 10 75 6 0 10 -32 10
-75z m4250 0 c0 -43 -4 -75 -10 -75 -6 0 -10 32 -10 75 0 43 4 75 10 75 6 0
10 -32 10 -75z m820 0 c0 -43 -4 -75 -10 -75 -6 0 -10 32 -10 75 0 43 4 75 10
75 6 0 10 -32 10 -75z m-4890 55 c10 -6 11 -10 3 -10 -16 0 -17 -25 -1 -50 11
-16 9 -23 -10 -40 -20 -19 -24 -20 -38 -6 -8 9 -11 16 -5 16 15 0 14 26 -1 51
-11 17 -10 22 6 35 23 17 26 17 46 4z m80 0 c10 -6 11 -10 3 -10 -7 0 -13 -9
-13 -20 0 -11 5 -20 10 -20 18 0 11 -35 -10 -53 -19 -16 -22 -16 -36 -2 -9 8
-11 15 -6 15 16 0 21 38 6 44 -19 7 -17 33 4 45 21 13 24 13 42 1z m410 0 c10
-6 11 -10 3 -10 -16 0 -17 -25 -1 -50 11 -16 9 -23 -10 -40 -20 -19 -24 -20
-38 -6 -8 9 -11 16 -5 16 15 0 14 26 -1 51 -11 17 -10 22 6 35 23 17 26 17 46
4z m80 0 c10 -6 11 -10 3 -10 -7 0 -13 -9 -13 -20 0 -11 5 -20 10 -20 18 0 11
-35 -10 -53 -19 -16 -22 -16 -36 -2 -9 8 -11 15 -6 15 16 0 21 38 6 44 -19 7
-17 33 4 45 21 13 24 13 42 1z m330 0 c10 -6 11 -10 3 -10 -16 0 -17 -25 -1
-50 11 -16 9 -23 -10 -40 -20 -19 -24 -20 -38 -6 -8 9 -11 16 -5 16 15 0 14
26 -1 51 -11 17 -10 22 6 35 23 17 26 17 46 4z m80 0 c10 -6 11 -10 3 -10 -16
0 -17 -25 -1 -50 11 -16 9 -23 -10 -40 -20 -19 -24 -20 -38 -6 -8 9 -11 16 -5
16 15 0 14 26 -1 51 -11 17 -10 22 6 35 23 17 26 17 46 4z m80 0 c10 -6 11
-10 3 -10 -7 0 -13 -9 -13 -20 0 -11 5 -20 10 -20 18 0 11 -35 -10 -53 -19
-16 -22 -16 -36 -2 -9 8 -11 15 -6 15 16 0 21 38 6 44 -19 7 -17 33 4 45 21
13 24 13 42 1z m85 0 c3 -5 1 -10 -4 -10 -17 0 -13 -32 7 -46 16 -12 15 -15
-11 -39 -25 -24 -29 -25 -43 -11 -14 15 -14 16 0 16 21 0 20 29 -1 46 -17 13
-17 15 6 34 26 22 37 25 46 10z m80 0 c3 -5 1 -10 -4 -10 -17 0 -13 -32 7 -46
16 -12 15 -15 -11 -39 -25 -24 -29 -25 -43 -11 -14 15 -14 16 0 16 21 0 20 29
-1 46 -17 13 -17 15 6 34 26 22 37 25 46 10z m78 4 c3 -3 0 -15 -6 -26 -10
-16 -9 -21 6 -29 18 -10 24 -39 8 -39 -5 0 -17 -7 -25 -16 -15 -14 -17 -14
-32 0 -14 15 -14 16 0 16 21 0 20 27 0 48 -15 15 -15 17 6 34 24 19 33 22 43
12z m332 -4 c3 -5 1 -10 -4 -10 -17 0 -13 -32 7 -46 16 -12 15 -15 -11 -39
-25 -24 -29 -25 -43 -11 -14 15 -14 16 0 16 21 0 20 29 -1 46 -17 13 -17 15 6
34 26 22 37 25 46 10z m80 0 c3 -5 1 -10 -4 -10 -17 0 -13 -32 7 -46 16 -12
15 -15 -11 -39 -25 -24 -29 -25 -43 -11 -14 15 -14 16 0 16 21 0 20 29 -1 46
-17 13 -17 15 6 34 26 22 37 25 46 10z m78 4 c3 -3 0 -15 -6 -26 -10 -16 -9
-21 6 -29 18 -10 24 -39 8 -39 -5 0 -17 -7 -25 -16 -15 -14 -17 -14 -32 0 -14
15 -14 16 0 16 21 0 20 27 0 48 -15 15 -15 17 6 34 24 19 33 22 43 12z m87 -4
c10 -6 11 -10 3 -10 -16 0 -17 -25 -1 -50 11 -16 9 -23 -10 -40 -20 -19 -24
-20 -38 -6 -8 9 -11 16 -5 16 15 0 14 26 -1 51 -11 17 -10 22 6 35 23 17 26
17 46 4z m80 0 c10 -6 11 -10 3 -10 -16 0 -17 -25 -1 -50 11 -16 9 -23 -10
-40 -20 -19 -24 -20 -38 -6 -8 9 -11 16 -5 16 15 0 14 26 -1 51 -11 17 -10 22
6 35 23 17 26 17 46 4z m80 0 c10 -6 11 -10 3 -10 -7 0 -13 -9 -13 -20 0 -11
5 -20 10 -20 18 0 11 -35 -10 -53 -19 -16 -22 -16 -36 -2 -9 8 -11 15 -6 15
16 0 21 38 6 44 -19 7 -17 33 4 45 21 13 24 13 42 1z m85 0 c3 -5 1 -10 -4
-10 -17 0 -13 -32 7 -46 16 -12 15 -15 -11 -39 -25 -24 -29 -25 -43 -11 -14
15 -14 16 0 16 21 0 20 29 -1 46 -17 13 -17 15 6 34 26 22 37 25 46 10z m325
0 c10 -6 11 -10 3 -10 -16 0 -17 -25 -1 -50 11 -16 9 -23 -10 -40 -20 -19 -24
-20 -38 -6 -8 9 -11 16 -5 16 15 0 14 26 -1 51 -11 17 -10 22 6 35 23 17 26
17 46 4z m80 0 c10 -6 11 -10 3 -10 -7 0 -13 -9 -13 -20 0 -11 5 -20 10 -20
18 0 11 -35 -10 -53 -19 -16 -22 -16 -36 -2 -9 8 -11 15 -6 15 16 0 21 38 6
44 -19 7 -17 33 4 45 21 13 24 13 42 1z m243 4 c3 -3 0 -15 -6 -26 -10 -16 -9
-21 6 -29 18 -10 24 -39 8 -39 -5 0 -17 -7 -25 -16 -15 -14 -17 -14 -32 0 -14
15 -14 16 0 16 21 0 20 27 0 48 -15 15 -15 17 6 34 24 19 33 22 43 12z m87 -4
c10 -6 11 -10 3 -10 -16 0 -17 -25 -1 -50 11 -16 9 -23 -10 -40 -20 -19 -24
-20 -38 -6 -8 9 -11 16 -5 16 15 0 14 26 -1 51 -11 17 -10 22 6 35 23 17 26
17 46 4z m80 0 c10 -6 11 -10 3 -10 -7 0 -13 -9 -13 -20 0 -11 5 -20 10 -20
18 0 11 -35 -10 -53 -19 -16 -22 -16 -36 -2 -9 8 -11 15 -6 15 16 0 21 38 6
44 -19 7 -17 33 4 45 21 13 24 13 42 1z m80 0 c10 -6 11 -10 3 -10 -7 0 -13
-9 -13 -20 0 -11 5 -20 10 -20 18 0 11 -35 -10 -53 -19 -16 -22 -16 -36 -2 -9
8 -11 15 -6 15 16 0 21 38 6 44 -19 7 -17 33 4 45 21 13 24 13 42 1z m85 0 c3
-5 1 -10 -4 -10 -17 0 -13 -32 7 -46 16 -12 15 -15 -11 -39 -25 -24 -29 -25
-43 -11 -14 15 -14 16 0 16 21 0 20 29 -1 46 -17 13 -17 15 6 34 26 22 37 25
46 10z m78 4 c3 -3 0 -15 -6 -26 -10 -16 -9 -21 6 -29 9 -6 17 -17 17 -24 0
-8 7 -15 15 -15 8 0 15 9 15 20 0 11 -4 20 -9 20 -21 0 -19 31 4 46 31 20 49
11 32 -17 -10 -17 -9 -22 6 -30 18 -10 24 -39 8 -39 -5 0 -17 -7 -25 -16 -15
-14 -17 -14 -32 0 -8 9 -19 16 -24 16 -5 0 -16 -7 -24 -16 -15 -14 -17 -14
-32 0 -14 15 -14 16 0 16 21 0 20 27 0 48 -15 15 -15 17 6 34 24 19 33 22 43
12z m1060 0 c3 -3 0 -15 -6 -26 -10 -16 -9 -21 6 -29 18 -10 24 -39 8 -39 -5
0 -17 -7 -25 -16 -15 -14 -17 -14 -32 0 -14 15 -14 16 0 16 21 0 20 27 0 48
-15 15 -15 17 6 34 24 19 33 22 43 12z m87 -4 c10 -6 11 -10 3 -10 -16 0 -17
-25 -1 -50 11 -16 9 -23 -10 -40 -20 -19 -24 -20 -38 -6 -8 9 -11 16 -5 16 15
0 14 26 -1 51 -11 17 -10 22 6 35 23 17 26 17 46 4z m403 4 c3 -3 0 -15 -6
-26 -10 -16 -9 -21 6 -29 18 -10 24 -39 8 -39 -5 0 -17 -7 -25 -16 -15 -14
-17 -14 -32 0 -14 15 -14 16 0 16 21 0 20 27 0 48 -15 15 -15 17 6 34 24 19
33 22 43 12z m87 -4 c10 -6 11 -10 3 -10 -16 0 -17 -25 -1 -50 11 -16 9 -23
-10 -40 -20 -19 -24 -20 -38 -6 -8 9 -11 16 -5 16 15 0 14 26 -1 51 -11 17
-10 22 6 35 23 17 26 17 46 4z m245 0 c3 -5 1 -10 -4 -10 -17 0 -13 -32 7 -46
16 -12 15 -15 -11 -39 -25 -24 -29 -25 -43 -11 -14 15 -14 16 0 16 21 0 20 29
-1 46 -17 13 -17 15 6 34 26 22 37 25 46 10z m78 4 c3 -3 0 -15 -6 -26 -10
-16 -9 -21 6 -29 18 -10 24 -39 8 -39 -5 0 -17 -7 -25 -16 -15 -14 -17 -14
-32 0 -14 15 -14 16 0 16 21 0 20 27 0 48 -15 15 -15 17 6 34 24 19 33 22 43
12z m-4853 -8 c0 -2 11 -29 25 -60 14 -31 20 -56 15 -56 -6 0 -21 25 -35 56
-29 64 -28 64 -15 64 6 0 10 -2 10 -4z m530 -3 c0 -17 -44 -113 -52 -113 -11
0 -11 1 13 64 12 31 26 56 30 56 5 0 9 -3 9 -7z m724 -30 c-9 -21 -20 -48 -25
-60 -5 -13 -13 -23 -19 -23 -6 0 -6 8 -1 23 28 70 42 97 51 97 6 0 3 -17 -6
-37z m811 -20 c-28 -62 -32 -69 -40 -61 -8 8 43 118 55 118 5 0 -2 -26 -15
-57z m345 50 c0 -17 -44 -113 -52 -113 -11 0 -11 1 13 64 12 31 26 56 30 56 5
0 9 -3 9 -7z m1863 -53 c17 -40 21 -60 13 -60 -7 0 -21 23 -32 52 -10 29 -20
56 -22 60 -2 4 0 8 6 8 5 0 20 -27 35 -60z m815 0 l24 -60 88 0 88 0 22 60
c12 33 26 60 31 60 5 0 9 -4 9 -9 0 -16 -43 -106 -54 -113 -6 -4 -49 -8 -96
-8 -47 0 -90 4 -97 8 -18 12 -64 122 -50 122 7 0 23 -27 35 -60z m-5558 -165
c0 -43 -4 -75 -10 -75 -6 0 -10 32 -10 75 0 43 4 75 10 75 6 0 10 -32 10 -75z
m1630 0 c0 -43 -4 -75 -10 -75 -6 0 -10 32 -10 75 0 43 4 75 10 75 6 0 10 -32
10 -75z m820 0 c0 -43 -4 -75 -10 -75 -6 0 -10 32 -10 75 0 43 4 75 10 75 6 0
10 -32 10 -75z m330 0 c0 -43 -4 -75 -10 -75 -6 0 -10 32 -10 75 0 43 4 75 10
75 6 0 10 -32 10 -75z m1470 0 c0 -43 -4 -75 -10 -75 -6 0 -10 32 -10 75 0 43
4 75 10 75 6 0 10 -32 10 -75z m490 0 c0 -43 -4 -75 -10 -75 -6 0 -10 32 -10
75 0 43 4 75 10 75 6 0 10 -32 10 -75z m330 0 c0 -43 -4 -75 -10 -75 -6 0 -10
32 -10 75 0 43 4 75 10 75 6 0 10 -32 10 -75z m-4890 55 c10 -6 11 -10 3 -10
-16 0 -17 -25 -1 -50 11 -16 9 -23 -10 -40 -20 -19 -24 -20 -38 -6 -8 9 -11
16 -5 16 15 0 14 26 -1 51 -11 17 -10 22 6 35 23 17 26 17 46 4z m80 0 c10 -6
11 -10 3 -10 -7 0 -13 -9 -13 -20 0 -11 5 -20 10 -20 18 0 11 -35 -10 -53 -19
-16 -22 -16 -36 -2 -9 8 -11 15 -6 15 16 0 21 38 6 44 -19 7 -17 33 4 45 21
13 24 13 42 1z m85 0 c3 -5 1 -10 -4 -10 -17 0 -13 -32 7 -46 16 -12 15 -15
-11 -39 -25 -24 -29 -25 -43 -11 -14 15 -14 16 0 16 21 0 20 29 -1 46 -17 13
-17 15 6 34 26 22 37 25 46 10z m80 0 c3 -5 1 -10 -4 -10 -17 0 -13 -32 7 -46
16 -12 15 -15 -11 -39 -25 -24 -29 -25 -43 -11 -14 15 -14 16 0 16 21 0 20 29
-1 46 -17 13 -17 15 6 34 26 22 37 25 46 10z m78 4 c3 -3 0 -15 -6 -26 -10
-16 -9 -21 6 -29 18 -10 24 -39 8 -39 -5 0 -17 -7 -25 -16 -15 -14 -17 -14
-32 0 -14 15 -14 16 0 16 21 0 20 27 0 48 -15 15 -15 17 6 34 24 19 33 22 43
12z m87 -4 c10 -6 11 -10 3 -10 -16 0 -17 -25 -1 -50 11 -16 9 -23 -10 -40
-20 -19 -24 -20 -38 -6 -8 9 -11 16 -5 16 15 0 14 26 -1 51 -11 17 -10 22 6
35 23 17 26 17 46 4z m80 0 c10 -6 11 -10 3 -10 -16 0 -17 -25 -1 -50 11 -16
9 -23 -10 -40 -20 -19 -24 -20 -38 -6 -8 9 -11 16 -5 16 15 0 14 26 -1 51 -11
17 -10 22 6 35 23 17 26 17 46 4z m323 4 c3 -3 0 -15 -6 -26 -10 -16 -9 -21 6
-29 18 -10 24 -39 8 -39 -5 0 -17 -7 -25 -16 -15 -14 -17 -14 -32 0 -14 15
-14 16 0 16 21 0 20 27 0 48 -15 15 -15 17 6 34 24 19 33 22 43 12z m87 -4
c10 -6 11 -10 3 -10 -16 0 -17 -25 -1 -50 11 -16 9 -23 -10 -40 -20 -19 -24
-20 -38 -6 -8 9 -11 16 -5 16 15 0 14 26 -1 51 -11 17 -10 22 6 35 23 17 26
17 46 4z m403 4 c3 -3 0 -15 -6 -26 -10 -16 -9 -21 6 -29 18 -10 24 -39 8 -39
-5 0 -17 -7 -25 -16 -15 -14 -17 -14 -32 0 -14 15 -14 16 0 16 21 0 20 27 0
48 -15 15 -15 17 6 34 24 19 33 22 43 12z m87 -4 c10 -6 11 -10 3 -10 -16 0
-17 -25 -1 -50 11 -16 9 -23 -10 -40 -20 -19 -24 -20 -38 -6 -8 9 -11 16 -5
16 15 0 14 26 -1 51 -11 17 -10 22 6 35 23 17 26 17 46 4z m245 0 c3 -5 1 -10
-4 -10 -17 0 -13 -32 7 -46 16 -12 15 -15 -11 -39 -25 -24 -29 -25 -43 -11
-14 15 -14 16 0 16 21 0 20 29 -1 46 -17 13 -17 15 6 34 26 22 37 25 46 10z
m80 0 c3 -5 1 -10 -4 -10 -17 0 -13 -32 7 -46 16 -12 15 -15 -11 -39 -25 -24
-29 -25 -43 -11 -14 15 -14 16 0 16 21 0 20 29 -1 46 -17 13 -17 15 6 34 26
22 37 25 46 10z m410 0 c3 -5 1 -10 -4 -10 -17 0 -13 -32 7 -46 16 -12 15 -15
-11 -39 -25 -24 -29 -25 -43 -11 -14 15 -14 16 0 16 21 0 20 29 -1 46 -17 13
-17 15 6 34 26 22 37 25 46 10z m80 0 c3 -5 1 -10 -4 -10 -17 0 -13 -32 7 -46
16 -12 15 -15 -11 -39 -25 -24 -29 -25 -43 -11 -14 15 -14 16 0 16 21 0 20 29
-1 46 -17 13 -17 15 6 34 26 22 37 25 46 10z m245 0 c10 -6 11 -10 3 -10 -16
0 -17 -25 -1 -50 11 -16 9 -23 -10 -40 -20 -19 -24 -20 -38 -6 -8 9 -11 16 -5
16 15 0 14 26 -1 51 -11 17 -10 22 6 35 23 17 26 17 46 4z m80 0 c10 -6 11
-10 3 -10 -7 0 -13 -9 -13 -20 0 -11 5 -20 10 -20 18 0 11 -35 -10 -53 -19
-16 -22 -16 -36 -2 -9 8 -11 15 -6 15 16 0 21 38 6 44 -19 7 -17 33 4 45 21
13 24 13 42 1z m243 4 c3 -3 0 -15 -6 -26 -10 -16 -9 -21 6 -29 18 -10 24 -39
8 -39 -5 0 -17 -7 -25 -16 -15 -14 -17 -14 -32 0 -14 15 -14 16 0 16 21 0 20
27 0 48 -15 15 -15 17 6 34 24 19 33 22 43 12z m87 -4 c10 -6 11 -10 3 -10
-16 0 -17 -25 -1 -50 11 -16 9 -23 -10 -40 -20 -19 -24 -20 -38 -6 -8 9 -11
16 -5 16 15 0 14 26 -1 51 -11 17 -10 22 6 35 23 17 26 17 46 4z m403 4 c3 -3
0 -15 -6 -26 -10 -16 -9 -21 6 -29 18 -10 24 -39 8 -39 -5 0 -17 -7 -25 -16
-15 -14 -17 -14 -32 0 -14 15 -14 16 0 16 21 0 20 27 0 48 -15 15 -15 17 6 34
24 19 33 22 43 12z m87 -4 c10 -6 11 -10 3 -10 -16 0 -17 -25 -1 -50 11 -16 9
-23 -10 -40 -20 -19 -24 -20 -38 -6 -8 9 -11 16 -5 16 15 0 14 26 -1 51 -11
17 -10 22 6 35 23 17 26 17 46 4z m245 0 c3 -5 1 -10 -4 -10 -17 0 -13 -32 7
-46 16 -12 15 -15 -11 -39 -25 -24 -29 -25 -43 -11 -14 15 -14 16 0 16 21 0
20 29 -1 46 -17 13 -17 15 6 34 26 22 37 25 46 10z m78 4 c3 -3 0 -15 -6 -26
-10 -16 -9 -21 6 -29 9 -6 17 -17 17 -24 0 -8 7 -15 15 -15 8 0 15 9 15 20 0
11 -4 20 -9 20 -21 0 -19 31 4 46 31 20 49 11 32 -17 -10 -17 -9 -22 6 -30 18
-10 24 -39 8 -39 -5 0 -17 -7 -25 -16 -15 -14 -17 -14 -32 0 -8 9 -19 16 -24
16 -5 0 -16 -7 -24 -16 -15 -14 -17 -14 -32 0 -14 15 -14 16 0 16 21 0 20 27
0 48 -15 15 -15 17 6 34 24 19 33 22 43 12z m167 -4 c10 -6 11 -10 3 -10 -16
0 -17 -25 -1 -50 11 -16 9 -23 -10 -40 -20 -19 -24 -20 -38 -6 -8 9 -11 16 -5
16 15 0 14 26 -1 51 -11 17 -10 22 6 35 23 17 26 17 46 4z m80 0 c10 -6 11
-10 3 -10 -7 0 -13 -9 -13 -20 0 -11 5 -20 10 -20 18 0 11 -35 -10 -53 -19
-16 -22 -16 -36 -2 -9 8 -11 15 -6 15 16 0 21 38 6 44 -19 7 -17 33 4 45 21
13 24 13 42 1z m80 0 c10 -6 11 -10 3 -10 -7 0 -13 -9 -13 -20 0 -11 5 -20 10
-20 18 0 11 -35 -10 -53 -19 -16 -22 -16 -36 -2 -9 8 -11 15 -6 15 16 0 21 38
6 44 -19 7 -17 33 4 45 21 13 24 13 42 1z m243 4 c3 -3 0 -15 -6 -26 -10 -16
-9 -21 6 -29 18 -10 24 -39 8 -39 -5 0 -17 -7 -25 -16 -15 -14 -17 -14 -32 0
-14 15 -14 16 0 16 21 0 20 27 0 48 -15 15 -15 17 6 34 24 19 33 22 43 12z
m87 -4 c10 -6 11 -10 3 -10 -16 0 -17 -25 -1 -50 11 -16 9 -23 -10 -40 -20
-19 -24 -20 -38 -6 -8 9 -11 16 -5 16 15 0 14 26 -1 51 -11 17 -10 22 6 35 23
17 26 17 46 4z m403 4 c3 -3 0 -15 -6 -26 -10 -16 -9 -21 6 -29 18 -10 24 -39
8 -39 -5 0 -17 -7 -25 -16 -15 -14 -17 -14 -32 0 -14 15 -14 16 0 16 21 0 20
27 0 48 -15 15 -15 17 6 34 24 19 33 22 43 12z m87 -4 c10 -6 11 -10 3 -10
-16 0 -17 -25 -1 -50 11 -16 9 -23 -10 -40 -20 -19 -24 -20 -38 -6 -8 9 -11
16 -5 16 15 0 14 26 -1 51 -11 17 -10 22 6 35 23 17 26 17 46 4z m323 4 c3 -3
0 -15 -6 -26 -10 -16 -9 -21 6 -29 9 -6 17 -17 17 -24 0 -8 7 -15 15 -15 8 0
15 9 15 20 0 11 -4 20 -9 20 -21 0 -19 31 4 46 31 20 49 11 32 -17 -10 -17 -9
-22 6 -30 18 -10 24 -39 8 -39 -5 0 -17 -7 -25 -16 -15 -14 -17 -14 -32 0 -8
9 -19 16 -24 16 -5 0 -16 -7 -24 -16 -15 -14 -17 -14 -32 0 -14 15 -14 16 0
16 21 0 20 27 0 48 -15 15 -15 17 6 34 24 19 33 22 43 12z m167 -4 c10 -6 11
-10 3 -10 -16 0 -17 -25 -1 -50 11 -16 9 -23 -10 -40 -20 -19 -24 -20 -38 -6
-8 9 -11 16 -5 16 15 0 14 26 -1 51 -11 17 -10 22 6 35 23 17 26 17 46 4z m80
0 c10 -6 11 -10 3 -10 -7 0 -13 -9 -13 -20 0 -11 5 -20 10 -20 18 0 11 -35
-10 -53 -19 -16 -22 -16 -36 -2 -9 8 -11 15 -6 15 16 0 21 38 6 44 -19 7 -17
33 4 45 21 13 24 13 42 1z m80 0 c10 -6 11 -10 3 -10 -7 0 -13 -9 -13 -20 0
-11 5 -20 10 -20 18 0 11 -35 -10 -53 -19 -16 -22 -16 -36 -2 -9 8 -11 15 -6
15 16 0 21 38 6 44 -19 7 -17 33 4 45 21 13 24 13 42 1z m85 0 c3 -5 1 -10 -4
-10 -17 0 -13 -32 7 -46 16 -12 15 -15 -11 -39 -25 -24 -29 -25 -43 -11 -14
15 -14 16 0 16 21 0 20 29 -1 46 -17 13 -17 15 6 34 26 22 37 25 46 10z
m-4819 -17 c-26 -70 -43 -103 -53 -103 -7 0 -2 22 14 60 15 33 31 60 36 60 5
0 6 -8 3 -17z m2768 -20 c-9 -21 -20 -48 -25 -60 -5 -13 -13 -23 -19 -23 -6 0
-6 8 -1 23 28 70 42 97 51 97 6 0 3 -17 -6 -37z m-2461 -90 c-23 -2 -64 -2
-90 0 -26 2 -7 3 42 3 50 0 71 -1 48 -3z m820 0 c-23 -2 -64 -2 -90 0 -26 2
-7 3 42 3 50 0 71 -1 48 -3z m1140 0 c-23 -2 -64 -2 -90 0 -26 2 -7 3 42 3 50
0 71 -1 48 -3z m-3183 -108 c0 -43 -4 -75 -10 -75 -6 0 -10 32 -10 75 0 43 4
75 10 75 6 0 10 -32 10 -75z m820 0 c0 -43 -4 -75 -10 -75 -6 0 -10 32 -10 75
0 43 4 75 10 75 6 0 10 -32 10 -75z m810 0 c0 -43 -4 -75 -10 -75 -6 0 -10 32
-10 75 0 43 4 75 10 75 6 0 10 -32 10 -75z m820 0 c0 -43 -4 -75 -10 -75 -6 0
-10 32 -10 75 0 43 4 75 10 75 6 0 10 -32 10 -75z m330 0 c0 -43 -4 -75 -10
-75 -6 0 -10 32 -10 75 0 43 4 75 10 75 6 0 10 -32 10 -75z m820 0 c0 -43 -4
-75 -10 -75 -6 0 -10 32 -10 75 0 43 4 75 10 75 6 0 10 -32 10 -75z m650 0 c0
-43 -4 -75 -10 -75 -6 0 -10 32 -10 75 0 43 4 75 10 75 6 0 10 -32 10 -75z
m490 0 c0 -43 -4 -75 -10 -75 -6 0 -10 32 -10 75 0 43 4 75 10 75 6 0 10 -32
10 -75z m-4560 55 c10 -6 11 -10 3 -10 -16 0 -17 -25 -1 -50 11 -16 9 -23 -10
-40 -20 -19 -24 -20 -38 -6 -8 9 -11 16 -5 16 15 0 14 26 -1 51 -11 17 -10 22
6 35 23 17 26 17 46 4z m80 0 c10 -6 11 -10 3 -10 -7 0 -13 -9 -13 -20 0 -11
5 -20 10 -20 18 0 11 -35 -10 -53 -19 -16 -22 -16 -36 -2 -9 8 -11 15 -6 15
16 0 21 38 6 44 -19 7 -17 33 4 45 21 13 24 13 42 1z m410 0 c10 -6 11 -10 3
-10 -16 0 -17 -25 -1 -50 11 -16 9 -23 -10 -40 -20 -19 -24 -20 -38 -6 -8 9
-11 16 -5 16 15 0 14 26 -1 51 -11 17 -10 22 6 35 23 17 26 17 46 4z m80 0
c10 -6 11 -10 3 -10 -7 0 -13 -9 -13 -20 0 -11 5 -20 10 -20 18 0 11 -35 -10
-53 -19 -16 -22 -16 -36 -2 -9 8 -11 15 -6 15 16 0 21 38 6 44 -19 7 -17 33 4
45 21 13 24 13 42 1z m243 4 c3 -3 0 -15 -6 -26 -10 -16 -9 -21 6 -29 18 -10
24 -39 8 -39 -5 0 -17 -7 -25 -16 -15 -14 -17 -14 -32 0 -14 15 -14 16 0 16
21 0 20 27 0 48 -15 15 -15 17 6 34 24 19 33 22 43 12z m87 -4 c10 -6 11 -10
3 -10 -16 0 -17 -25 -1 -50 11 -16 9 -23 -10 -40 -20 -19 -24 -20 -38 -6 -8 9
-11 16 -5 16 15 0 14 26 -1 51 -11 17 -10 22 6 35 23 17 26 17 46 4z m403 4
c3 -3 0 -15 -6 -26 -10 -16 -9 -21 6 -29 18 -10 24 -39 8 -39 -5 0 -17 -7 -25
-16 -15 -14 -17 -14 -32 0 -14 15 -14 16 0 16 21 0 20 27 0 48 -15 15 -15 17
6 34 24 19 33 22 43 12z m87 -4 c10 -6 11 -10 3 -10 -16 0 -17 -25 -1 -50 11
-16 9 -23 -10 -40 -20 -19 -24 -20 -38 -6 -8 9 -11 16 -5 16 15 0 14 26 -1 51
-11 17 -10 22 6 35 23 17 26 17 46 4z m245 0 c3 -5 1 -10 -4 -10 -17 0 -13
-32 7 -46 16 -12 15 -15 -11 -39 -25 -24 -29 -25 -43 -11 -14 15 -14 16 0 16
21 0 20 29 -1 46 -17 13 -17 15 6 34 26 22 37 25 46 10z m80 0 c3 -5 1 -10 -4
-10 -17 0 -13 -32 7 -46 16 -12 15 -15 -11 -39 -25 -24 -29 -25 -43 -11 -14
15 -14 16 0 16 21 0 20 29 -1 46 -17 13 -17 15 6 34 26 22 37 25 46 10z m410
0 c3 -5 1 -10 -4 -10 -17 0 -13 -32 7 -46 16 -12 15 -15 -11 -39 -25 -24 -29
-25 -43 -11 -14 15 -14 16 0 16 21 0 20 29 -1 46 -17 13 -17 15 6 34 26 22 37
25 46 10z m80 0 c3 -5 1 -10 -4 -10 -17 0 -13 -32 7 -46 16 -12 15 -15 -11
-39 -25 -24 -29 -25 -43 -11 -14 15 -14 16 0 16 21 0 20 29 -1 46 -17 13 -17
15 6 34 26 22 37 25 46 10z m245 0 c10 -6 11 -10 3 -10 -16 0 -17 -25 -1 -50
11 -16 9 -23 -10 -40 -20 -19 -24 -20 -38 -6 -8 9 -11 16 -5 16 15 0 14 26 -1
51 -11 17 -10 22 6 35 23 17 26 17 46 4z m80 0 c10 -6 11 -10 3 -10 -7 0 -13
-9 -13 -20 0 -11 5 -20 10 -20 18 0 11 -35 -10 -53 -19 -16 -22 -16 -36 -2 -9
8 -11 15 -6 15 16 0 21 38 6 44 -19 7 -17 33 4 45 21 13 24 13 42 1z m243 4
c3 -3 0 -15 -6 -26 -10 -16 -9 -21 6 -29 18 -10 24 -39 8 -39 -5 0 -17 -7 -25
-16 -15 -14 -17 -14 -32 0 -14 15 -14 16 0 16 21 0 20 27 0 48 -15 15 -15 17
6 34 24 19 33 22 43 12z m87 -4 c10 -6 11 -10 3 -10 -16 0 -17 -25 -1 -50 11
-16 9 -23 -10 -40 -20 -19 -24 -20 -38 -6 -8 9 -11 16 -5 16 15 0 14 26 -1 51
-11 17 -10 22 6 35 23 17 26 17 46 4z m403 4 c3 -3 0 -15 -6 -26 -10 -16 -9
-21 6 -29 18 -10 24 -39 8 -39 -5 0 -17 -7 -25 -16 -15 -14 -17 -14 -32 0 -14
15 -14 16 0 16 21 0 20 27 0 48 -15 15 -15 17 6 34 24 19 33 22 43 12z m87 -4
c10 -6 11 -10 3 -10 -16 0 -17 -25 -1 -50 11 -16 9 -23 -10 -40 -20 -19 -24
-20 -38 -6 -8 9 -11 16 -5 16 15 0 14 26 -1 51 -11 17 -10 22 6 35 23 17 26
17 46 4z m893 4 c3 -3 0 -15 -6 -26 -10 -16 -9 -21 6 -29 18 -10 24 -39 8 -39
-5 0 -17 -7 -25 -16 -15 -14 -17 -14 -32 0 -14 15 -14 16 0 16 21 0 20 27 0
48 -15 15 -15 17 6 34 24 19 33 22 43 12z m87 -4 c10 -6 11 -10 3 -10 -16 0
-17 -25 -1 -50 11 -16 9 -23 -10 -40 -20 -19 -24 -20 -38 -6 -8 9 -11 16 -5
16 15 0 14 26 -1 51 -11 17 -10 22 6 35 23 17 26 17 46 4z m403 4 c3 -3 0 -15
-6 -26 -10 -16 -9 -21 6 -29 18 -10 24 -39 8 -39 -5 0 -17 -7 -25 -16 -15 -14
-17 -14 -32 0 -14 15 -14 16 0 16 21 0 20 27 0 48 -15 15 -15 17 6 34 24 19
33 22 43 12z m87 -4 c10 -6 11 -10 3 -10 -16 0 -17 -25 -1 -50 11 -16 9 -23
-10 -40 -20 -19 -24 -20 -38 -6 -8 9 -11 16 -5 16 15 0 14 26 -1 51 -11 17
-10 22 6 35 23 17 26 17 46 4z m735 0 c3 -5 1 -10 -4 -10 -17 0 -13 -32 7 -46
16 -12 15 -15 -11 -39 -25 -24 -29 -25 -43 -11 -14 15 -14 16 0 16 21 0 20 29
-1 46 -17 13 -17 15 6 34 26 22 37 25 46 10z m78 4 c3 -3 0 -15 -6 -26 -10
-16 -9 -21 6 -29 18 -10 24 -39 8 -39 -5 0 -17 -7 -25 -16 -15 -14 -17 -14
-32 0 -14 15 -14 16 0 16 21 0 20 27 0 48 -15 15 -15 17 6 34 24 19 33 22 43
12z m-4500 -64 c17 -40 21 -60 13 -60 -7 0 -21 23 -32 52 -10 29 -20 56 -22
60 -2 4 0 8 6 8 5 0 20 -27 35 -60z m812 3 c14 -31 23 -58 20 -61 -8 -8 -12
-1 -40 61 -13 31 -20 57 -15 57 6 0 22 -25 35 -57z m1148 -3 c17 -40 21 -60
13 -60 -7 0 -21 23 -32 52 -10 29 -20 56 -22 60 -2 4 0 8 6 8 5 0 20 -27 35
-60z m901 23 c-9 -21 -20 -48 -25 -60 -4 -12 -19 -25 -31 -28 -13 -3 -131 -4
-263 -3 l-240 3 253 3 c252 2 253 2 261 25 28 70 42 97 51 97 6 0 3 -17 -6
-37z m974 -23 l24 -60 171 -2 172 -2 -160 -4 c-88 -1 -169 0 -181 2 -23 6 -81
126 -61 126 7 0 23 -27 35 -60z m-4740 -67 c-27 -2 -69 -2 -95 0 -27 2 -5 3
47 3 52 0 74 -1 48 -3z m-408 -98 c0 -43 -4 -75 -10 -75 -6 0 -10 32 -10 75 0
43 4 75 10 75 6 0 10 -32 10 -75z m820 0 c0 -43 -4 -75 -10 -75 -6 0 -10 32
-10 75 0 43 4 75 10 75 6 0 10 -32 10 -75z m490 0 c0 -43 -4 -75 -10 -75 -6 0
-10 32 -10 75 0 43 4 75 10 75 6 0 10 -32 10 -75z m320 0 c0 -43 -4 -75 -10
-75 -6 0 -10 32 -10 75 0 43 4 75 10 75 6 0 10 -32 10 -75z m490 0 c0 -43 -4
-75 -10 -75 -6 0 -10 32 -10 75 0 43 4 75 10 75 6 0 10 -32 10 -75z m330 0 c0
-43 -4 -75 -10 -75 -6 0 -10 32 -10 75 0 43 4 75 10 75 6 0 10 -32 10 -75z
m330 0 c0 -43 -4 -75 -10 -75 -6 0 -10 32 -10 75 0 43 4 75 10 75 6 0 10 -32
10 -75z m490 0 c0 -43 -4 -75 -10 -75 -6 0 -10 32 -10 75 0 43 4 75 10 75 6 0
10 -32 10 -75z m980 0 c0 -43 -4 -75 -10 -75 -6 0 -10 32 -10 75 0 43 4 75 10
75 6 0 10 -32 10 -75z m490 0 c0 -43 -4 -75 -10 -75 -6 0 -10 32 -10 75 0 43
4 75 10 75 6 0 10 -32 10 -75z m-4560 55 c10 -6 11 -10 3 -10 -16 0 -17 -25
-1 -50 11 -16 9 -23 -10 -40 -20 -19 -24 -20 -38 -6 -8 9 -11 16 -5 16 15 0
14 26 -1 51 -11 17 -10 22 6 35 23 17 26 17 46 4z m80 0 c10 -6 11 -10 3 -10
-7 0 -13 -9 -13 -20 0 -11 5 -20 10 -20 18 0 11 -35 -10 -53 -19 -16 -22 -16
-36 -2 -9 8 -11 15 -6 15 16 0 21 38 6 44 -19 7 -17 33 4 45 21 13 24 13 42 1z
m410 0 c10 -6 11 -10 3 -10 -16 0 -17 -25 -1 -50 11 -16 9 -23 -10 -40 -20
-19 -24 -20 -38 -6 -8 9 -11 16 -5 16 15 0 14 26 -1 51 -11 17 -10 22 6 35 23
17 26 17 46 4z m80 0 c10 -6 11 -10 3 -10 -7 0 -13 -9 -13 -20 0 -11 5 -20 10
-20 18 0 11 -35 -10 -53 -19 -16 -22 -16 -36 -2 -9 8 -11 15 -6 15 16 0 21 38
6 44 -19 7 -17 33 4 45 21 13 24 13 42 1z m243 4 c3 -3 0 -15 -6 -26 -10 -16
-9 -21 6 -29 18 -10 24 -39 8 -39 -5 0 -17 -7 -25 -16 -15 -14 -17 -14 -32 0
-14 15 -14 16 0 16 21 0 20 27 0 48 -15 15 -15 17 6 34 24 19 33 22 43 12z
m87 -4 c10 -6 11 -10 3 -10 -16 0 -17 -25 -1 -50 11 -16 9 -23 -10 -40 -20
-19 -24 -20 -38 -6 -8 9 -11 16 -5 16 15 0 14 26 -1 51 -11 17 -10 22 6 35 23
17 26 17 46 4z m403 4 c3 -3 0 -15 -6 -26 -10 -16 -9 -21 6 -29 18 -10 24 -39
8 -39 -5 0 -17 -7 -25 -16 -15 -14 -17 -14 -32 0 -14 15 -14 16 0 16 21 0 20
27 0 48 -15 15 -15 17 6 34 24 19 33 22 43 12z m87 -4 c10 -6 11 -10 3 -10
-16 0 -17 -25 -1 -50 11 -16 9 -23 -10 -40 -20 -19 -24 -20 -38 -6 -8 9 -11
16 -5 16 15 0 14 26 -1 51 -11 17 -10 22 6 35 23 17 26 17 46 4z m245 0 c3 -5
1 -10 -4 -10 -17 0 -13 -32 7 -46 16 -12 15 -15 -11 -39 -25 -24 -29 -25 -43
-11 -14 15 -14 16 0 16 21 0 20 29 -1 46 -17 13 -17 15 6 34 26 22 37 25 46
10z m80 0 c3 -5 1 -10 -4 -10 -17 0 -13 -32 7 -46 16 -12 15 -15 -11 -39 -25
-24 -29 -25 -43 -11 -14 15 -14 16 0 16 21 0 20 29 -1 46 -17 13 -17 15 6 34
26 22 37 25 46 10z m410 0 c3 -5 1 -10 -4 -10 -17 0 -13 -32 7 -46 16 -12 15
-15 -11 -39 -25 -24 -29 -25 -43 -11 -14 15 -14 16 0 16 21 0 20 29 -1 46 -17
13 -17 15 6 34 26 22 37 25 46 10z m80 0 c3 -5 1 -10 -4 -10 -17 0 -13 -32 7
-46 16 -12 15 -15 -11 -39 -25 -24 -29 -25 -43 -11 -14 15 -14 16 0 16 21 0
20 29 -1 46 -17 13 -17 15 6 34 26 22 37 25 46 10z m245 0 c10 -6 11 -10 3
-10 -16 0 -17 -25 -1 -50 11 -16 9 -23 -10 -40 -20 -19 -24 -20 -38 -6 -8 9
-11 16 -5 16 15 0 14 26 -1 51 -11 17 -10 22 6 35 23 17 26 17 46 4z m80 0
c10 -6 11 -10 3 -10 -7 0 -13 -9 -13 -20 0 -11 5 -20 10 -20 18 0 11 -35 -10
-53 -19 -16 -22 -16 -36 -2 -9 8 -11 15 -6 15 16 0 21 38 6 44 -19 7 -17 33 4
45 21 13 24 13 42 1z m243 4 c3 -3 0 -15 -6 -26 -10 -16 -9 -21 6 -29 18 -10
24 -39 8 -39 -5 0 -17 -7 -25 -16 -15 -14 -17 -14 -32 0 -14 15 -14 16 0 16
21 0 20 27 0 48 -15 15 -15 17 6 34 24 19 33 22 43 12z m87 -4 c10 -6 11 -10
3 -10 -16 0 -17 -25 -1 -50 11 -16 9 -23 -10 -40 -20 -19 -24 -20 -38 -6 -8 9
-11 16 -5 16 15 0 14 26 -1 51 -11 17 -10 22 6 35 23 17 26 17 46 4z m403 4
c3 -3 0 -15 -6 -26 -10 -16 -9 -21 6 -29 18 -10 24 -39 8 -39 -5 0 -17 -7 -25
-16 -15 -14 -17 -14 -32 0 -14 15 -14 16 0 16 21 0 20 27 0 48 -15 15 -15 17
6 34 24 19 33 22 43 12z m87 -4 c10 -6 11 -10 3 -10 -16 0 -17 -25 -1 -50 11
-16 9 -23 -10 -40 -20 -19 -24 -20 -38 -6 -8 9 -11 16 -5 16 15 0 14 26 -1 51
-11 17 -10 22 6 35 23 17 26 17 46 4z m893 4 c3 -3 0 -15 -6 -26 -10 -16 -9
-21 6 -29 18 -10 24 -39 8 -39 -5 0 -17 -7 -25 -16 -15 -14 -17 -14 -32 0 -14
15 -14 16 0 16 21 0 20 27 0 48 -15 15 -15 17 6 34 24 19 33 22 43 12z m87 -4
c10 -6 11 -10 3 -10 -16 0 -17 -25 -1 -50 11 -16 9 -23 -10 -40 -20 -19 -24
-20 -38 -6 -8 9 -11 16 -5 16 15 0 14 26 -1 51 -11 17 -10 22 6 35 23 17 26
17 46 4z m403 4 c3 -3 0 -15 -6 -26 -10 -16 -9 -21 6 -29 18 -10 24 -39 8 -39
-5 0 -17 -7 -25 -16 -15 -14 -17 -14 -32 0 -14 15 -14 16 0 16 21 0 20 27 0
48 -15 15 -15 17 6 34 24 19 33 22 43 12z m87 -4 c10 -6 11 -10 3 -10 -16 0
-17 -25 -1 -50 11 -16 9 -23 -10 -40 -20 -19 -24 -20 -38 -6 -8 9 -11 16 -5
16 15 0 14 26 -1 51 -11 17 -10 22 6 35 23 17 26 17 46 4z m245 0 c3 -5 1 -10
-4 -10 -17 0 -13 -32 7 -46 16 -12 15 -15 -11 -39 -25 -24 -29 -25 -43 -11
-14 15 -14 16 0 16 21 0 20 29 -1 46 -17 13 -17 15 6 34 26 22 37 25 46 10z
m78 4 c3 -3 0 -15 -6 -26 -10 -16 -9 -21 6 -29 18 -10 24 -39 8 -39 -5 0 -17
-7 -25 -16 -15 -14 -17 -14 -32 0 -14 15 -14 16 0 16 21 0 20 27 0 48 -15 15
-15 17 6 34 24 19 33 22 43 12z m412 -4 c3 -5 1 -10 -4 -10 -17 0 -13 -32 7
-46 16 -12 15 -15 -11 -39 -25 -24 -29 -25 -43 -11 -14 15 -14 16 0 16 21 0
20 29 -1 46 -17 13 -17 15 6 34 26 22 37 25 46 10z m78 4 c3 -3 0 -15 -6 -26
-10 -16 -9 -21 6 -29 18 -10 24 -39 8 -39 -5 0 -17 -7 -25 -16 -15 -14 -17
-14 -32 0 -14 15 -14 16 0 16 21 0 20 27 0 48 -15 15 -15 17 6 34 24 19 33 22
43 12z m-5343 -8 c0 -2 11 -29 25 -60 14 -31 20 -56 15 -56 -6 0 -21 25 -35
56 -29 64 -28 64 -15 64 6 0 10 -2 10 -4z m4684 -33 c-9 -21 -20 -48 -25 -60
-5 -13 -13 -23 -19 -23 -6 0 -6 8 -1 23 28 70 42 97 51 97 6 0 3 -17 -6 -37z
m402 -15 c10 -29 21 -56 22 -60 2 -4 0 -8 -6 -8 -5 0 -20 27 -35 60 -17 40
-21 60 -13 60 7 0 21 -23 32 -52z m-5556 -173 c0 -43 -4 -75 -10 -75 -6 0 -10
32 -10 75 0 43 4 75 10 75 6 0 10 -32 10 -75z m820 0 c0 -43 -4 -75 -10 -75
-6 0 -10 32 -10 75 0 43 4 75 10 75 6 0 10 -32 10 -75z m810 0 c0 -43 -4 -75
-10 -75 -6 0 -10 32 -10 75 0 43 4 75 10 75 6 0 10 -32 10 -75z m490 0 c0 -43
-4 -75 -10 -75 -6 0 -10 32 -10 75 0 43 4 75 10 75 6 0 10 -32 10 -75z m330 0
c0 -43 -4 -75 -10 -75 -6 0 -10 32 -10 75 0 43 4 75 10 75 6 0 10 -32 10 -75z
m330 0 c0 -43 -4 -75 -10 -75 -6 0 -10 32 -10 75 0 43 4 75 10 75 6 0 10 -32
10 -75z m490 0 c0 -43 -4 -75 -10 -75 -6 0 -10 32 -10 75 0 43 4 75 10 75 6 0
10 -32 10 -75z m980 0 c0 -43 -4 -75 -10 -75 -6 0 -10 32 -10 75 0 43 4 75 10
75 6 0 10 -32 10 -75z m820 0 c0 -43 -4 -75 -10 -75 -6 0 -10 32 -10 75 0 43
4 75 10 75 6 0 10 -32 10 -75z m-4890 55 c10 -6 11 -10 3 -10 -16 0 -17 -25
-1 -50 11 -16 9 -23 -10 -40 -20 -19 -24 -20 -38 -6 -8 9 -11 16 -5 16 15 0
14 26 -1 51 -11 17 -10 22 6 35 23 17 26 17 46 4z m80 0 c10 -6 11 -10 3 -10
-7 0 -13 -9 -13 -20 0 -11 5 -20 10 -20 18 0 11 -35 -10 -53 -19 -16 -22 -16
-36 -2 -9 8 -11 15 -6 15 16 0 21 38 6 44 -19 7 -17 33 4 45 21 13 24 13 42 1z
m85 0 c3 -5 1 -10 -4 -10 -17 0 -13 -32 7 -46 16 -12 15 -15 -11 -39 -25 -24
-29 -25 -43 -11 -14 15 -14 16 0 16 21 0 20 29 -1 46 -17 13 -17 15 6 34 26
22 37 25 46 10z m80 0 c3 -5 1 -10 -4 -10 -17 0 -13 -32 7 -46 16 -12 15 -15
-11 -39 -25 -24 -29 -25 -43 -11 -14 15 -14 16 0 16 21 0 20 29 -1 46 -17 13
-17 15 6 34 26 22 37 25 46 10z m78 4 c3 -3 0 -15 -6 -26 -10 -16 -9 -21 6
-29 18 -10 24 -39 8 -39 -5 0 -17 -7 -25 -16 -15 -14 -17 -14 -32 0 -14 15
-14 16 0 16 21 0 20 27 0 48 -15 15 -15 17 6 34 24 19 33 22 43 12z m87 -4
c10 -6 11 -10 3 -10 -16 0 -17 -25 -1 -50 11 -16 9 -23 -10 -40 -20 -19 -24
-20 -38 -6 -8 9 -11 16 -5 16 15 0 14 26 -1 51 -11 17 -10 22 6 35 23 17 26
17 46 4z m80 0 c10 -6 11 -10 3 -10 -16 0 -17 -25 -1 -50 11 -16 9 -23 -10
-40 -20 -19 -24 -20 -38 -6 -8 9 -11 16 -5 16 15 0 14 26 -1 51 -11 17 -10 22
6 35 23 17 26 17 46 4z m410 0 c10 -6 11 -10 3 -10 -16 0 -17 -25 -1 -50 11
-16 9 -23 -10 -40 -20 -19 -24 -20 -38 -6 -8 9 -11 16 -5 16 15 0 14 26 -1 51
-11 17 -10 22 6 35 23 17 26 17 46 4z m80 0 c10 -6 11 -10 3 -10 -16 0 -17
-25 -1 -50 11 -16 9 -23 -10 -40 -20 -19 -24 -20 -38 -6 -8 9 -11 16 -5 16 15
0 14 26 -1 51 -11 17 -10 22 6 35 23 17 26 17 46 4z m80 0 c10 -6 11 -10 3
-10 -7 0 -13 -9 -13 -20 0 -11 5 -20 10 -20 18 0 11 -35 -10 -53 -19 -16 -22
-16 -36 -2 -9 8 -11 15 -6 15 16 0 21 38 6 44 -19 7 -17 33 4 45 21 13 24 13
42 1z m85 0 c3 -5 1 -10 -4 -10 -17 0 -13 -32 7 -46 16 -12 15 -15 -11 -39
-25 -24 -29 -25 -43 -11 -14 15 -14 16 0 16 21 0 20 29 -1 46 -17 13 -17 15 6
34 26 22 37 25 46 10z m80 0 c3 -5 1 -10 -4 -10 -17 0 -13 -32 7 -46 16 -12
15 -15 -11 -39 -25 -24 -29 -25 -43 -11 -14 15 -14 16 0 16 21 0 20 29 -1 46
-17 13 -17 15 6 34 26 22 37 25 46 10z m78 4 c3 -3 0 -15 -6 -26 -10 -16 -9
-21 6 -29 18 -10 24 -39 8 -39 -5 0 -17 -7 -25 -16 -15 -14 -17 -14 -32 0 -14
15 -14 16 0 16 21 0 20 27 0 48 -15 15 -15 17 6 34 24 19 33 22 43 12z m332
-4 c3 -5 1 -10 -4 -10 -17 0 -13 -32 7 -46 16 -12 15 -15 -11 -39 -25 -24 -29
-25 -43 -11 -14 15 -14 16 0 16 21 0 20 29 -1 46 -17 13 -17 15 6 34 26 22 37
25 46 10z m80 0 c3 -5 1 -10 -4 -10 -17 0 -13 -32 7 -46 16 -12 15 -15 -11
-39 -25 -24 -29 -25 -43 -11 -14 15 -14 16 0 16 21 0 20 29 -1 46 -17 13 -17
15 6 34 26 22 37 25 46 10z m410 0 c3 -5 1 -10 -4 -10 -17 0 -13 -32 7 -46 16
-12 15 -15 -11 -39 -25 -24 -29 -25 -43 -11 -14 15 -14 16 0 16 21 0 20 29 -1
46 -17 13 -17 15 6 34 26 22 37 25 46 10z m80 0 c3 -5 1 -10 -4 -10 -17 0 -13
-32 7 -46 16 -12 15 -15 -11 -39 -25 -24 -29 -25 -43 -11 -14 15 -14 16 0 16
21 0 20 29 -1 46 -17 13 -17 15 6 34 26 22 37 25 46 10z m245 0 c10 -6 11 -10
3 -10 -16 0 -17 -25 -1 -50 11 -16 9 -23 -10 -40 -20 -19 -24 -20 -38 -6 -8 9
-11 16 -5 16 15 0 14 26 -1 51 -11 17 -10 22 6 35 23 17 26 17 46 4z m80 0
c10 -6 11 -10 3 -10 -7 0 -13 -9 -13 -20 0 -11 5 -20 10 -20 18 0 11 -35 -10
-53 -19 -16 -22 -16 -36 -2 -9 8 -11 15 -6 15 16 0 21 38 6 44 -19 7 -17 33 4
45 21 13 24 13 42 1z m243 4 c3 -3 0 -15 -6 -26 -10 -16 -9 -21 6 -29 18 -10
24 -39 8 -39 -5 0 -17 -7 -25 -16 -15 -14 -17 -14 -32 0 -14 15 -14 16 0 16
21 0 20 27 0 48 -15 15 -15 17 6 34 24 19 33 22 43 12z m87 -4 c10 -6 11 -10
3 -10 -16 0 -17 -25 -1 -50 11 -16 9 -23 -10 -40 -20 -19 -24 -20 -38 -6 -8 9
-11 16 -5 16 15 0 14 26 -1 51 -11 17 -10 22 6 35 23 17 26 17 46 4z m403 4
c3 -3 0 -15 -6 -26 -10 -16 -9 -21 6 -29 18 -10 24 -39 8 -39 -5 0 -17 -7 -25
-16 -15 -14 -17 -14 -32 0 -14 15 -14 16 0 16 21 0 20 27 0 48 -15 15 -15 17
6 34 24 19 33 22 43 12z m87 -4 c10 -6 11 -10 3 -10 -16 0 -17 -25 -1 -50 11
-16 9 -23 -10 -40 -20 -19 -24 -20 -38 -6 -8 9 -11 16 -5 16 15 0 14 26 -1 51
-11 17 -10 22 6 35 23 17 26 17 46 4z m980 0 c10 -6 11 -10 3 -10 -16 0 -17
-25 -1 -50 11 -16 9 -23 -10 -40 -20 -19 -24 -20 -38 -6 -8 9 -11 16 -5 16 15
0 14 26 -1 51 -11 17 -10 22 6 35 23 17 26 17 46 4z m80 0 c10 -6 11 -10 3
-10 -7 0 -13 -9 -13 -20 0 -11 5 -20 10 -20 18 0 11 -35 -10 -53 -19 -16 -22
-16 -36 -2 -9 8 -11 15 -6 15 16 0 21 38 6 44 -19 7 -17 33 4 45 21 13 24 13
42 1z m80 0 c10 -6 11 -10 3 -10 -7 0 -13 -9 -13 -20 0 -11 5 -20 10 -20 18 0
11 -35 -10 -53 -19 -16 -22 -16 -36 -2 -9 8 -11 15 -6 15 16 0 21 38 6 44 -19
7 -17 33 4 45 21 13 24 13 42 1z m85 0 c3 -5 1 -10 -4 -10 -17 0 -13 -32 7
-46 16 -12 15 -15 -11 -39 -25 -24 -29 -25 -43 -11 -14 15 -14 16 0 16 21 0
20 29 -1 46 -17 13 -17 15 6 34 26 22 37 25 46 10z m78 4 c3 -3 0 -15 -6 -26
-10 -16 -9 -21 6 -29 9 -6 17 -17 17 -24 0 -8 7 -15 15 -15 8 0 15 9 15 20 0
11 -4 20 -9 20 -21 0 -19 31 4 46 31 20 49 11 32 -17 -10 -17 -9 -22 6 -30 18
-10 24 -39 8 -39 -5 0 -17 -7 -25 -16 -15 -14 -17 -14 -32 0 -8 9 -19 16 -24
16 -5 0 -16 -7 -24 -16 -15 -14 -17 -14 -32 0 -14 15 -14 16 0 16 21 0 20 27
0 48 -15 15 -15 17 6 34 24 19 33 22 43 12z m490 0 c3 -3 0 -15 -6 -26 -10
-16 -9 -21 6 -29 9 -6 17 -17 17 -24 0 -8 7 -15 15 -15 8 0 15 9 15 20 0 11
-4 20 -9 20 -21 0 -19 31 4 46 31 20 49 11 32 -17 -10 -17 -9 -22 6 -30 18
-10 24 -39 8 -39 -5 0 -17 -7 -25 -16 -15 -14 -17 -14 -32 0 -8 9 -19 16 -24
16 -5 0 -16 -7 -24 -16 -15 -14 -17 -14 -32 0 -14 15 -14 16 0 16 21 0 20 27
0 48 -15 15 -15 17 6 34 24 19 33 22 43 12z m167 -4 c10 -6 11 -10 3 -10 -16
0 -17 -25 -1 -50 11 -16 9 -23 -10 -40 -20 -19 -24 -20 -38 -6 -8 9 -11 16 -5
16 15 0 14 26 -1 51 -11 17 -10 22 6 35 23 17 26 17 46 4z m80 0 c10 -6 11
-10 3 -10 -7 0 -13 -9 -13 -20 0 -11 5 -20 10 -20 18 0 11 -35 -10 -53 -19
-16 -22 -16 -36 -2 -9 8 -11 15 -6 15 16 0 21 38 6 44 -19 7 -17 33 4 45 21
13 24 13 42 1z m80 0 c10 -6 11 -10 3 -10 -7 0 -13 -9 -13 -20 0 -11 5 -20 10
-20 18 0 11 -35 -10 -53 -19 -16 -22 -16 -36 -2 -9 8 -11 15 -6 15 16 0 21 38
6 44 -19 7 -17 33 4 45 21 13 24 13 42 1z m85 0 c3 -5 1 -10 -4 -10 -17 0 -13
-32 7 -46 16 -12 15 -15 -11 -39 -25 -24 -29 -25 -43 -11 -14 15 -14 16 0 16
21 0 20 29 -1 46 -17 13 -17 15 6 34 26 22 37 25 46 10z m-4991 -37 c-9 -21
-20 -48 -25 -60 -5 -13 -13 -23 -19 -23 -6 0 -6 8 -1 23 28 70 42 97 51 97 6
0 3 -17 -6 -37z m811 -20 c-28 -62 -32 -69 -40 -61 -8 8 43 118 55 118 5 0 -2
-26 -15 -57z m3430 0 c-28 -62 -32 -69 -40 -61 -8 8 43 118 55 118 5 0 -2 -26
-15 -57z m835 50 c0 -17 -44 -113 -52 -113 -11 0 -11 1 13 64 12 31 26 56 30
56 5 0 9 -3 9 -7z m-5820 -228 c0 -43 -4 -75 -10 -75 -6 0 -10 32 -10 75 0 43
4 75 10 75 6 0 10 -32 10 -75z m1630 0 c0 -43 -4 -75 -10 -75 -6 0 -10 32 -10
75 0 43 4 75 10 75 6 0 10 -32 10 -75z m490 0 c0 -43 -4 -75 -10 -75 -6 0 -10
32 -10 75 0 43 4 75 10 75 6 0 10 -32 10 -75z m330 0 c0 -43 -4 -75 -10 -75
-6 0 -10 32 -10 75 0 43 4 75 10 75 6 0 10 -32 10 -75z m330 0 c0 -43 -4 -75
-10 -75 -6 0 -10 32 -10 75 0 43 4 75 10 75 6 0 10 -32 10 -75z m490 0 c0 -43
-4 -75 -10 -75 -6 0 -10 32 -10 75 0 43 4 75 10 75 6 0 10 -32 10 -75z m-2616
-2 c-13 -32 -30 -61 -37 -65 -7 -4 -142 -7 -302 -6 l-290 3 291 2 292 3 25 60
c15 33 31 60 37 60 5 0 -2 -26 -16 -57z m249 -3 l26 -60 249 0 250 0 22 60
c12 33 26 60 31 60 5 0 9 -4 9 -9 0 -16 -43 -106 -54 -113 -13 -9 -481 -10
-512 -2 -14 4 -27 23 -40 57 -10 28 -20 55 -22 59 -2 4 0 8 6 8 5 0 20 -27 35
-60z m997 54 c0 -13 -45 -110 -54 -116 -6 -4 -51 -7 -101 -6 l-90 2 88 3 89 4
26 59 c14 33 29 60 34 60 4 0 8 -3 8 -6z m490 0 c0 -13 -45 -110 -54 -116 -6
-4 -51 -7 -101 -6 l-90 2 88 3 89 4 26 59 c14 33 29 60 34 60 4 0 8 -3 8 -6z
m314 -31 c-9 -21 -20 -48 -25 -60 -11 -29 -37 -35 -129 -30 l-75 3 88 2 c81 2
88 4 96 25 28 70 42 97 51 97 6 0 3 -17 -6 -37z m320 -20 c-13 -32 -30 -61
-37 -65 -7 -4 -50 -7 -97 -6 l-85 2 86 3 87 4 26 59 c14 33 30 60 36 60 5 0
-2 -26 -16 -57z m490 0 c-13 -32 -30 -61 -37 -65 -7 -4 -50 -7 -97 -6 l-85 2
86 3 87 4 26 59 c14 33 30 60 36 60 5 0 -2 -26 -16 -57z m819 -3 l26 -60 249
0 250 0 22 60 c12 33 26 60 31 60 5 0 9 -4 9 -9 0 -16 -43 -106 -54 -113 -13
-9 -488 -11 -511 -2 -9 4 -27 31 -41 62 -27 62 -27 62 -15 62 4 0 20 -27 34
-60z m815 0 l24 -60 250 0 249 0 26 60 c15 33 31 60 36 60 5 0 6 -8 3 -17 -28
-75 -43 -103 -61 -107 -30 -9 -498 -7 -512 2 -18 12 -64 122 -50 122 7 0 23
-27 35 -60z"/>
<path d="M391 1904 c0 -11 3 -14 6 -6 3 7 2 16 -1 19 -3 4 -6 -2 -5 -13z"/>
<path d="M2841 1904 c0 -11 3 -14 6 -6 3 7 2 16 -1 19 -3 4 -6 -2 -5 -13z"/>
<path d="M4721 1904 c0 -11 3 -14 6 -6 3 7 2 16 -1 19 -3 4 -6 -2 -5 -13z"/>
<path d="M4801 1904 c0 -11 3 -14 6 -6 3 7 2 16 -1 19 -3 4 -6 -2 -5 -13z"/>
<path d="M5701 1904 c0 -11 3 -14 6 -6 3 7 2 16 -1 19 -3 4 -6 -2 -5 -13z"/>
<path d="M5781 1904 c0 -11 3 -14 6 -6 3 7 2 16 -1 19 -3 4 -6 -2 -5 -13z"/>
<path d="M391 1734 c0 -11 3 -14 6 -6 3 7 2 16 -1 19 -3 4 -6 -2 -5 -13z"/>
<path d="M881 1734 c0 -11 3 -14 6 -6 3 7 2 16 -1 19 -3 4 -6 -2 -5 -13z"/>
<path d="M391 1554 c0 -11 3 -14 6 -6 3 7 2 16 -1 19 -3 4 -6 -2 -5 -13z"/>
<path d="M881 1554 c0 -11 3 -14 6 -6 3 7 2 16 -1 19 -3 4 -6 -2 -5 -13z"/>
<path d="M1371 1554 c0 -11 3 -14 6 -6 3 7 2 16 -1 19 -3 4 -6 -2 -5 -13z"/>
<path d="M2351 1554 c0 -11 3 -14 6 -6 3 7 2 16 -1 19 -3 4 -6 -2 -5 -13z"/>
<path d="M2841 1554 c0 -11 3 -14 6 -6 3 7 2 16 -1 19 -3 4 -6 -2 -5 -13z"/>
<path d="M3251 1554 c0 -11 3 -14 6 -6 3 7 2 16 -1 19 -3 4 -6 -2 -5 -13z"/>
<path d="M3331 1554 c0 -11 3 -14 6 -6 3 7 2 16 -1 19 -3 4 -6 -2 -5 -13z"/>
<path d="M391 1384 c0 -11 3 -14 6 -6 3 7 2 16 -1 19 -3 4 -6 -2 -5 -13z"/>
<path d="M2841 1384 c0 -11 3 -14 6 -6 3 7 2 16 -1 19 -3 4 -6 -2 -5 -13z"/>
<path d="M4231 1384 c0 -11 3 -14 6 -6 3 7 2 16 -1 19 -3 4 -6 -2 -5 -13z"/>
<path d="M4311 1384 c0 -11 3 -14 6 -6 3 7 2 16 -1 19 -3 4 -6 -2 -5 -13z"/>
<path d="M5701 1384 c0 -11 3 -14 6 -6 3 7 2 16 -1 19 -3 4 -6 -2 -5 -13z"/>
<path d="M5781 1384 c0 -11 3 -14 6 -6 3 7 2 16 -1 19 -3 4 -6 -2 -5 -13z"/>
<path d="M391 1204 c0 -11 3 -14 6 -6 3 7 2 16 -1 19 -3 4 -6 -2 -5 -13z"/>
<path d="M881 1204 c0 -11 3 -14 6 -6 3 7 2 16 -1 19 -3 4 -6 -2 -5 -13z"/>
<path d="M2841 1204 c0 -11 3 -14 6 -6 3 7 2 16 -1 19 -3 4 -6 -2 -5 -13z"/>
<path d="M391 1034 c0 -11 3 -14 6 -6 3 7 2 16 -1 19 -3 4 -6 -2 -5 -13z"/>
<path d="M881 1034 c0 -11 3 -14 6 -6 3 7 2 16 -1 19 -3 4 -6 -2 -5 -13z"/>
<path d="M2841 1034 c0 -11 3 -14 6 -6 3 7 2 16 -1 19 -3 4 -6 -2 -5 -13z"/>
<path d="M391 864 c0 -11 3 -14 6 -6 3 7 2 16 -1 19 -3 4 -6 -2 -5 -13z"/>
<path d="M1371 864 c0 -11 3 -14 6 -6 3 7 2 16 -1 19 -3 4 -6 -2 -5 -13z"/>
<path d="M2841 864 c0 -11 3 -14 6 -6 3 7 2 16 -1 19 -3 4 -6 -2 -5 -13z"/>
<path d="M4721 864 c0 -11 3 -14 6 -6 3 7 2 16 -1 19 -3 4 -6 -2 -5 -13z"/>
<path d="M4801 864 c0 -11 3 -14 6 -6 3 7 2 16 -1 19 -3 4 -6 -2 -5 -13z"/>
<path d="M5701 864 c0 -11 3 -14 6 -6 3 7 2 16 -1 19 -3 4 -6 -2 -5 -13z"/>
<path d="M5781 864 c0 -11 3 -14 6 -6 3 7 2 16 -1 19 -3 4 -6 -2 -5 -13z"/>
</g>
</svg>
